<?xml version="1.0" encoding="UTF-8" standalone="no"?>
<!-- Created with Inkscape (http://www.inkscape.org/) -->

<svg
   width="500"
   height="500"
   viewBox="0 0 132.29166 132.29167"
   version="1.1"
   id="svg1"
   inkscape:version="1.4.1-rc (06eac75fbf, 2025-03-29)"
   sodipodi:docname="avatar3.svg"
   xmlns:inkscape="http://www.inkscape.org/namespaces/inkscape"
   xmlns:sodipodi="http://sodipodi.sourceforge.net/DTD/sodipodi-0.dtd"
   xmlns="http://www.w3.org/2000/svg"
   xmlns:svg="http://www.w3.org/2000/svg">
  <sodipodi:namedview
     id="namedview1"
     pagecolor="#ffffff"
     bordercolor="#000000"
     borderopacity="0.25"
     inkscape:showpageshadow="2"
     inkscape:pageopacity="0.0"
     inkscape:pagecheckerboard="0"
     inkscape:deskcolor="#d1d1d1"
     inkscape:document-units="mm"
     showguides="false"
     inkscape:zoom="1.1100028"
     inkscape:cx="226.12555"
     inkscape:cy="210.81028"
     inkscape:window-width="1536"
     inkscape:window-height="897"
     inkscape:window-x="0"
     inkscape:window-y="0"
     inkscape:window-maximized="1"
     inkscape:current-layer="layer2" />
  <defs
     id="defs1" />
  <g
     inkscape:groupmode="layer"
     id="layer3"
     inkscape:label="Layer 3"
     style="display:none"
     sodipodi:insensitive="true">
    <rect
       style="fill:#f4e3d7;fill-opacity:1;stroke:#2d3f66;stroke-width:6;stroke-linejoin:round;stroke-dasharray:none;stroke-opacity:1;paint-order:markers fill stroke"
       id="rect14"
       width="132.29167"
       height="132.29167"
       x="0"
       y="0"
       rx="5.0862632e-06"
       ry="0" />
  </g>
  <g
     inkscape:label="Layer 1"
     inkscape:groupmode="layer"
     id="layer1"
     style="display:inline">
    <rect
       style="fill:#f4e3d7;fill-opacity:1;stroke:#000000;stroke-width:2.78241;stroke-linejoin:round;stroke-dasharray:none"
       id="rect4"
       width="91.856529"
       height="112.08487"
       x="20.988811"
       y="7.1356764"
       ry="45.928265" />
    <path
       id="rect5"
       style="fill:none;stroke:#000000;stroke-width:2.78241;stroke-linejoin:round;stroke-dasharray:none;stroke-opacity:1"
       d="m 89.695637,81.768722 h -9.983458 c -6.09386,0 -10.999748,-5.208514 -10.999748,-11.678282 v -5.982311 c 0,-6.469768 -0.142987,-11.678282 5.950873,-11.678282 h 19.535383 c 6.093863,0 6.496693,5.208514 6.496693,11.678282 v 5.982311 c 0,6.469768 -4.905882,11.678282 -10.999743,11.678282 z"
       sodipodi:nodetypes="sssssssss" />
    <path
       id="rect5-3"
       style="fill:none;stroke:#000000;stroke-width:2.78241;stroke-linejoin:round;stroke-dasharray:none;stroke-opacity:1"
       d="m 51.307813,81.76872 h -9.983458 c -6.09386,0 -10.999748,-5.208513 -10.999748,-11.678282 v -5.98231 c 0,-6.469768 -0.142987,-11.678281 5.950873,-11.678281 h 19.535383 c 6.093861,0 6.496698,5.208513 6.496698,11.678281 v 5.98231 c 0,6.469769 -4.905887,11.678282 -10.999748,11.678282 z"
       sodipodi:nodetypes="sssssssss" />
    <path
       style="fill:#1a1a1a;fill-opacity:1;stroke:#000000;stroke-width:2.78241;stroke-linejoin:round;stroke-dasharray:none;stroke-opacity:1"
       d="M 49.132515,52.429847 H 84.701638"
       id="path6" />
    <path
       style="fill:none;fill-opacity:1;stroke:#000000;stroke-width:2.78241;stroke-linejoin:round;stroke-dasharray:none;stroke-opacity:1"
       d="m 62.304132,63.178111 h 6.72995"
       id="path7"
       inkscape:transform-center-x="0.45268693"
       inkscape:transform-center-y="4.872695" />
    <path
       style="display:inline;fill:none;fill-opacity:1;stroke:#000000;stroke-width:2.78241;stroke-linejoin:round;stroke-dasharray:none;stroke-opacity:1"
       d="m 100.42167,64.753808 11.89224,-8.064385"
       id="path7-0"
       inkscape:transform-center-x="-3.9692691"
       inkscape:transform-center-y="8.1475049"
       sodipodi:nodetypes="cc" />
    <ellipse
       style="fill:#000000;fill-opacity:1;stroke:#000000;stroke-width:4.57985;stroke-linejoin:round;stroke-dasharray:none"
       id="path8"
       cx="46.313061"
       cy="67.099281"
       rx="3.0457525"
       ry="3.1055501" />
    <ellipse
       style="fill:#000000;fill-opacity:1;stroke:#000000;stroke-width:4.57985;stroke-linejoin:round;stroke-dasharray:none"
       id="path8-6"
       cx="84.700882"
       cy="67.099281"
       rx="3.0457525"
       ry="3.1055501" />
    <g
       id="path9"
       style="opacity:1"
       transform="matrix(1.3912074,0,0,1.3912074,-24.773653,-31.33132)">
      <path
         style="baseline-shift:baseline;display:inline;overflow:visible;vector-effect:none;fill:#1a1a1a;stroke-linejoin:round;enable-background:accumulate;stop-color:#000000;stop-opacity:1"
         d="M 7.2475608,37.754734 28.990242,37.417638"
         id="path10" />
    </g>
    <path
       style="fill:#f4e3d7;fill-opacity:1;stroke:#000000;stroke-width:2.78241;stroke-linejoin:round;stroke-dasharray:none"
       d="m 20.98881,58.584838 c 0,0 -5.590421,0.320067 -5.48597,7.453447 0.104452,7.13338 5.48597,7.015009 5.48597,7.015009"
       id="path11-7"
       sodipodi:nodetypes="czc"
       inkscape:transform-center-x="26.056873"
       inkscape:transform-center-y="-11.107682" />
    <path
       style="fill:#f4e3d7;fill-opacity:1;stroke:#000000;stroke-width:2.78241;stroke-linejoin:round;stroke-dasharray:none"
       d="m 112.84534,72.545282 c 0,0 5.599,-0.0792 5.80163,-7.210469 0.2026,-7.131266 -5.17903,-7.244586 -5.17903,-7.244586"
       id="path11-7-8"
       sodipodi:nodetypes="czc"
       inkscape:transform-center-x="-25.405882"
       inkscape:transform-center-y="12.10067" />
    <path
       style="display:inline;fill:none;fill-opacity:1;stroke:#000000;stroke-width:2.78241;stroke-linejoin:round;stroke-dasharray:none;stroke-opacity:1"
       d="M 30.324607,64.108128 21.06833,56.706967"
       id="path7-0-6"
       inkscape:transform-center-x="3.9692665"
       inkscape:transform-center-y="8.1475047"
       sodipodi:nodetypes="cc" />
  </g>
  <g
     inkscape:groupmode="layer"
     id="layer2"
     inkscape:label="Layer 2">
    <path
       id="path12-2"
       style="fill:none;fill-opacity:1;stroke:#502d16;stroke-width:2.78241;stroke-linejoin:round;stroke-dasharray:none"
       d="M 22.527123,41.186333 26.813145,47.80741 34.482404,35.535151 42.289092,47.80741 51.648739,37.141788 62.304132,48.256265 70.594433,36.1754 79.365207,47.398841 91.127903,37.2188 l 6.420422,10.619701 6.148375,-5.596968 8.83291,5.384104 M 22.527123,41.186333 C 27.740738,24.45906 42.938613,9.8322556 67.306482,9.8322556 c 21.732533,0 39.457018,12.2470464 44.279348,32.4613634 0.41517,1.740329 0.73182,3.519727 0.94378,5.332018" />
    <rect
       style="display:inline;fill:none;fill-opacity:1;stroke:#000000;stroke-width:2.78241;stroke-linejoin:round;stroke-dasharray:none"
       id="rect4-4"
       width="91.856529"
       height="112.08487"
       x="20.988811"
       y="7.1356764"
       ry="45.928265" />
    <path
       id="rect11"
       style="display:inline;fill:#502d16;stroke:#000000;stroke-width:1.89864;stroke-linejoin:round"
       d="m 61.313278,85.007866 h 8.711658 c 7.299497,0 13.175988,-0.848471 13.175988,7.298246 v 28.463858 c 0,4.04323 -2.279105,9.7756 -4.936318,6.22116 l -2.885293,-3.85953 -5.049249,4.54168 -4.157142,-4.63144 -4.554248,4.70324 -5.437671,-4.55962 -2.774479,4.3083 c -1.045779,1.62393 -5.269234,-2.68056 -5.269234,-6.72379 V 92.306112 c 0,-7.677747 5.876491,-7.298246 13.175988,-7.298246 z"
       sodipodi:nodetypes="ssssscccccssss" />
    <path
       style="display:inline;fill:none;fill-opacity:1;stroke:#000000;stroke-width:2.78241;stroke-linejoin:round;stroke-dasharray:none"
       d="m 54.061059,97.37255 c 0,0 0.513535,9.0117 11.958741,8.84412 11.445207,-0.16759 11.255286,-8.84412 11.255286,-8.84412"
       id="path11"
       sodipodi:nodetypes="czc" />
    <path
       style="fill:none;fill-opacity:1;stroke:none;stroke-width:1.25334;stroke-linejoin:round;stroke-dasharray:none"
       d="m 57.230588,40.799566 -4.851003,-5.062349 h -0.696176 c -0.841639,0 -0.767093,-0.07272 -5.651515,5.51305 -1.893902,2.165839 -3.490854,3.936729 -3.548784,3.935308 -0.05793,-0.0015 -1.597578,-2.360235 -3.421444,-5.241812 -1.823869,-2.881576 -3.494064,-5.379937 -3.711546,-5.551917 -0.502771,-0.397578 -1.353321,-0.401656 -1.775314,-0.0085 -0.179573,0.167297 -1.777645,2.627712 -3.551266,5.467587 l -3.224769,5.163409 -1.288375,-1.9786 c -0.708603,-1.088229 -1.288371,-2.062097 -1.288371,-2.16415 0,-0.421021 1.559359,-4.129391 2.582408,-6.141318 1.204627,-2.369021 3.237059,-5.51358 4.879474,-7.549462 0.580825,-0.719977 1.957567,-2.204397 3.05942,-3.298718 6.996402,-6.948551 16.196746,-11.155216 26.82179,-12.263698 2.794519,-0.291546 8.239042,-0.334535 10.764539,-0.085 13.991153,1.382441 25.383551,7.861636 32.353874,18.400614 1.47178,2.225301 3.39927,6.154749 4.26991,8.704816 0.60545,1.773316 1.71261,5.886596 1.61017,5.98202 -0.0217,0.02028 -1.30797,-0.746127 -2.85826,-1.703099 -1.55029,-0.956969 -3.06182,-1.84615 -3.35897,-1.975957 -0.99022,-0.432561 -0.9908,-0.432163 -5.52838,3.716925 l -0.928669,0.849158 -2.854412,-4.719569 c -1.569923,-2.595762 -2.993781,-4.794159 -3.16413,-4.885327 -0.895593,-0.479305 -1.12333,-0.334977 -5.675208,3.596669 -2.395779,2.069333 -4.861748,4.208567 -5.47993,4.753856 -0.646348,0.570132 -1.181467,0.926528 -1.259285,0.83869 -0.07442,-0.084 -1.729413,-2.204588 -3.677752,-4.712402 -1.948339,-2.507817 -3.78046,-4.802157 -4.07138,-5.098536 -0.611811,-0.623291 -1.464072,-0.727877 -2.026728,-0.248708 -0.187398,0.159586 -1.919789,2.603153 -3.849768,5.430145 -1.929974,2.826993 -3.563069,5.198315 -3.629097,5.269607 -0.06603,0.07129 -2.303002,-2.148436 -4.971053,-4.932727 z"
       id="path13" />
    <path
       style="fill:#502d16;fill-opacity:1;stroke:#502d16;stroke-width:0.696994;stroke-linejoin:round;stroke-dasharray:none"
       d="m 57.230588,40.799566 -4.851003,-5.062349 h -0.696176 c -0.841639,0 -0.767093,-0.07272 -5.651515,5.51305 -1.893902,2.165839 -3.490854,3.936729 -3.548784,3.935308 -0.05793,-0.0015 -1.597578,-2.360235 -3.421444,-5.241812 -1.823869,-2.881576 -3.494064,-5.379937 -3.711546,-5.551917 -0.502771,-0.397578 -1.353321,-0.401656 -1.775314,-0.0085 -0.179573,0.167297 -1.777645,2.627712 -3.551266,5.467587 l -3.224769,5.163409 -1.288375,-1.9786 c -0.708603,-1.088229 -1.288371,-2.062097 -1.288371,-2.16415 0,-0.421021 1.559359,-4.129391 2.582408,-6.141318 1.204627,-2.369021 3.237059,-5.51358 4.879474,-7.549462 0.580825,-0.719977 1.957567,-2.204397 3.05942,-3.298718 6.996402,-6.948551 16.196746,-11.155216 26.82179,-12.263698 2.794519,-0.291546 8.239042,-0.334535 10.764539,-0.085 13.991153,1.382441 25.383551,7.861636 32.353874,18.400614 1.47178,2.225301 3.39927,6.154749 4.26991,8.704816 0.60545,1.773316 1.71261,5.886596 1.61017,5.98202 -0.0217,0.02028 -1.30797,-0.746127 -2.85826,-1.703099 -1.55029,-0.956969 -3.06182,-1.84615 -3.35897,-1.975957 -0.99022,-0.432561 -0.9908,-0.432163 -5.52838,3.716925 l -0.928669,0.849158 -2.854412,-4.719569 c -1.569923,-2.595762 -2.993781,-4.794159 -3.16413,-4.885327 -0.895593,-0.479305 -1.12333,-0.334977 -5.675208,3.596669 -2.395779,2.069333 -4.861748,4.208567 -5.47993,4.753856 -0.646348,0.570132 -1.181467,0.926528 -1.259285,0.83869 -0.07442,-0.084 -1.729413,-2.204588 -3.677752,-4.712402 -1.948339,-2.507817 -3.78046,-4.802157 -4.07138,-5.098536 -0.611811,-0.623291 -1.464072,-0.727877 -2.026728,-0.248708 -0.187398,0.159586 -1.919789,2.603153 -3.849768,5.430145 -1.929974,2.826993 -3.563069,5.198315 -3.629097,5.269607 -0.06603,0.07129 -2.303002,-2.148436 -4.971053,-4.932727 z"
       id="path14" />
    <path
       style="display:inline;fill:none;fill-opacity:1;stroke:#000000;stroke-width:1.899;stroke-linejoin:round;stroke-dasharray:none"
       d="m 22.468468,43.019264 4.286022,6.621078 7.669259,-12.27226 7.806688,12.27226 9.359647,-10.665623 10.655393,11.114478 8.290301,-12.080866 8.770774,11.223441 11.762696,-10.180041 6.420423,10.619701 6.148369,-5.596968 8.83292,5.384104"
       id="path12"
       sodipodi:nodetypes="cccccccccccc" />
  </g>
</svg>
