<?xml version="1.0" encoding="UTF-8" standalone="no"?>
<!-- Created with Inkscape (http://www.inkscape.org/) -->

<svg
   width="256"
   height="128"
   viewBox="0 0 67.733334 33.866666"
   version="1.1"
   id="svg1"
   xmlns="http://www.w3.org/2000/svg"
   xmlns:svg="http://www.w3.org/2000/svg">
  <defs
     id="defs1" />
  <g
     id="layer1">
    <path
       style="font-size:192px;font-family:Prociono;-inkscape-font-specification:Prociono;letter-spacing:-10px;white-space:pre;fill:#8f8878;stroke:#8f8878;stroke-width:1.19916;stroke-linecap:round"
       d="m 23.428037,10.499945 -0.191865,12.66309 q 0,1.199156 1.055257,2.925941 1.103224,1.678819 1.103224,1.966617 0,0.239831 -0.431696,0.383729 -3.357638,1.103224 -3.789334,1.103224 -0.38373,0 -0.815426,-0.671527 -0.38373,-0.719494 -0.719494,-1.726785 -0.335763,-1.007291 -0.38373,-1.055258 -0.719493,0.479663 -1.774751,1.199157 -1.055257,0.719493 -1.486953,1.007291 -0.383731,0.239831 -1.15119,0.623561 -0.719494,0.38373 -1.295089,0.527629 -1.343055,0.335763 -3.6454347,0.335763 -2.254414,0 -3.357638,-1.822717 -1.103223,-1.822717 -1.103223,-3.981199 0,-2.158481 0.335764,-3.45357 0.335763,-1.295089 1.103223,-2.158481 0.76746,-0.863392 1.53492,-1.438987 0.76746,-0.575596 2.1584807,-0.959326 1.438988,-0.431696 2.446279,-0.623561 1.055258,-0.239831 2.925941,-0.575595 1.870684,-0.38373 3.021874,-0.623561 l 0.04797,-2.877975 q 0,-2.2064475 -1.582886,-3.1657725 -1.582886,-0.9593249 -3.8373,-0.9593249 -2.206447,0 -3.06984,1.1511899 -0.8633927,1.1032238 -1.8706837,4.7966245 l -1.966616,-0.191864 q 0,-4.1730642 1.438988,-5.8518829 1.726784,-2.0145825 3.7413667,-2.4942445 2.014583,-0.479663 4.077131,-0.479663 2.110515,0 3.597469,0.479663 1.486953,0.479662 2.206447,1.1032233 0.76746,0.5755949 1.15119,1.6308524 0.431697,1.0072912 0.479663,1.6308525 0.04797,0.6235612 0.04797,1.5828862 z M 9.7576563,23.019136 q 0,3.549503 3.2137387,3.549503 2.830008,0 5.707983,-2.398313 0.335764,-0.287797 0.335764,-3.501536 0,-3.213739 -0.04797,-4.652726 -0.863393,0.287797 -2.206447,0.719493 -1.295089,0.431697 -1.870684,0.623562 -0.527629,0.191865 -1.438988,0.527628 -0.911358,0.287798 -1.247122,0.479663 -0.287798,0.191865 -0.863393,0.479662 -0.527628,0.287798 -0.671527,0.575595 -0.143899,0.239832 -0.431696,0.623562 -0.2877977,0.335763 -0.3357637,0.815426 -0.143899,1.343055 -0.143899,2.158481 z m 32.3731607,1.15119 0.04797,-13.526482 q 0,-1.5349202 -0.911359,-2.254414 -0.863392,-0.76746 -3.357637,-0.76746 -0.959325,0 -2.398313,0.6235613 -1.438988,0.575595 -2.350346,1.15119 Q 32.825364,20.28506 32.825364,21.915912 v 2.398313 q 0,0.76746 0.09593,1.343055 0.143898,0.575595 0.191865,0.863393 0.04797,0.239831 0.335764,0.479662 0.335763,0.239831 0.479662,0.287798 0.719493,0.09593 1.582886,0.383729 v 1.630853 h -9.785115 v -1.630853 q 1.582887,-0.09593 2.158482,-0.575595 0.623561,-0.479662 0.623561,-1.438987 0,-16.11666 -0.335764,-17.1239512 Q 28.076705,8.2934975 27.740939,8.0057 27.405175,7.6699363 25.582457,7.4780713 l -0.09593,-1.8227174 q 1.91865,-0.1918653 3.933233,-0.9113583 2.014582,-0.719494 2.590177,-0.719494 0.575595,0 0.815426,0.527629 0.239831,0.527628 0.239831,2.014582 V 7.23824 q 0.287798,-0.1438987 1.103224,-0.6235612 0.863393,-0.4796625 1.199156,-0.6715275 0.38373,-0.191865 1.055258,-0.5755947 0.719494,-0.38373 1.15119,-0.527629 0.431696,-0.191865 1.055257,-0.38373 0.959325,-0.38373 2.062549,-0.38373 2.782042,0 5.995781,3.4056037 4.652726,-3.4056037 8.010364,-3.4056037 1.966617,0 3.30967,1.15119 2.110516,1.8706837 2.110516,4.5088274 l -0.09593,12.519191 q 0,3.789334 0.383733,4.556794 0.431695,0.76746 2.110512,0.863392 h 0.335764 v 1.630853 h -9.785116 v -1.630853 q 1.822717,-0.09593 2.254413,-0.719493 0.479663,-0.671528 0.479663,-2.973908 L 55.753233,12.22673 q 0,-1.391021 -0.09593,-2.062549 Q 55.561365,9.4926538 55.177637,8.8211263 54.793907,8.1016325 53.882548,7.8618013 52.971189,7.62197 51.532202,7.62197 q -1.438987,0 -4.892557,1.8227175 -0.04797,6.2356125 -0.04797,12.8069885 l 0.09593,3.06984 q 0,0.575595 0.191864,0.959325 0.191865,0.335764 0.191865,0.575595 0.04797,0.191865 0.38373,0.335764 0.38373,0.143899 0.431697,0.191865 0.09593,0.04797 0.671527,0.143899 0.575595,0.09593 0.76746,0.143898 v 1.630853 h -9.785115 v -1.630853 q 1.774752,-0.09593 2.158481,-0.719493 0.431697,-0.671528 0.431697,-2.782043 z"
       id="text1"
       aria-label="am" />
  </g>
</svg>
